<svg xmlns="http://www.w3.org/2000/svg" style="display: none;">
  <symbol id="icon-telegram" viewBox="0 0 24 24">
    <path
      fill="currentColor"
      d="M12 3.1c-4.9 0-8.9 4-8.9 8.9S7.1 20.9 12 20.9s8.9-4 8.9-8.9S16.9 3.1 12 3.1zm4.3 6.1-1.5 7.3c-.1.5-.5.7-1 .4l-2.8-2-1.3 1.2c-.1.1-.3.2-.5.2l.2-3 5.4-4.9c.2-.2 0-.3-.3-.2l-6.6 4.1-2.8-.9c-.5-.2-.5-.6.1-.8l10.8-4.2c.5-.2 1 .1.8.8z"
    />
  </symbol>
  <symbol id="icon-vk" viewBox="0 0 24 24">
    <path
      fill="currentColor"
      d="M4.7 7.2h2.7c.2 0 .4.1.5.3.8 2.3 1.9 4.2 3.5 6.1.5.5.7.6 1 .6.1 0 .3 0 .3-.4V7.2c0-.2.1-.4.4-.4h2.5c.2 0 .4.1.4.4v3.8c0 .3.1.4.4.2 1.1-.5 2.5-2.4 3.1-3.9.1-.2.3-.4.6-.4h2.6c.3 0 .4.2.3.5-.3 1.2-1.9 3.7-3.1 4.9-.2.2-.2.3 0 .6 1.1 1.1 2.6 2.8 3.2 4.2.1.3 0 .5-.3.5h-2.6c-.2 0-.4-.1-.6-.3-.7-1-1.6-2.3-2.8-3.4-.3-.3-.6-.2-.6.2v3.1c0 .2-.1.4-.4.4h-1.1c-4.1 0-7.4-2.8-8.7-7.3-.2-.6-.3-1.2-.3-1.7 0-.2.1-.4.4-.4z"
    />
  </symbol>
  <symbol id="icon-behance" viewBox="0 0 24 24">
    <path
      fill="currentColor"
      d="M6.9 7.1H3.7c-.3 0-.4.1-.4.4v9.1c0 .3.1.4.4.4h3.4c2.6 0 4.4-1.1 4.4-3.3 0-1.4-.8-2.4-2.1-2.7 1.1-.4 1.7-1.2 1.7-2.4 0-2.1-1.6-3.5-4.2-3.5zm-.3 3.7H5.1V8.6h1.5c1 0 1.7.4 1.7 1.1 0 .7-.6 1.1-1.7 1.1zm.2 4H5.1v-2.3h1.7c1.2 0 1.8.5 1.8 1.2 0 .8-.6 1.1-1.8 1.1zm9.9-6.5c-2.4 0-4.1 1.7-4.1 4.2 0 2.5 1.6 4.2 4.2 4.2 1.8 0 3.1-.8 3.7-2.2.1-.2 0-.4-.2-.4h-1.8c-.2 0-.3.1-.4.2-.3.5-.7.8-1.4.8-1 0-1.8-.6-1.9-1.6h5.8c.3 0 .4-.1.4-.4.1-2.7-1.5-4.8-4.3-4.8zm-1.9 3.6c.2-.9.9-1.4 1.9-1.4.9 0 1.6.5 1.7 1.4h-3.6zm4.7-4.4h-3.7c-.2 0-.4-.1-.4-.4v-.5c0-.2.1-.4.4-.4h3.7c.2 0 .4.1.4.4v.5c0 .2-.1.4-.4.4z"
    />
  </symbol>
</svg>
